<svg width="24" height="24" viewBox="0 0 24 24" fill="none" xmlns="http://www.w3.org/2000/svg">
<path d="M3.93555 3.83333C4.76819 3.83333 5.51414 4.34905 5.80762 5.12825L9.52441 15.0003H13.5254C16.027 15.0003 18.2188 13.6605 19.4395 11.64C19.725 11.1672 20.3398 11.0155 20.8125 11.3011C21.2849 11.5868 21.4369 12.2016 21.1514 12.6741C19.5878 15.2623 16.7638 17.0003 13.5254 17.0003H9.52441C8.69169 17.0003 7.94576 16.4837 7.65234 15.7044L3.93555 5.83333H3C2.44772 5.83333 2 5.38561 2 4.83333C2 4.28104 2.44772 3.83333 3 3.83333H3.93555Z" fill="black"/>
<path d="M9.32776 21C10.0419 21 10.6208 20.4155 10.6208 19.6944C10.6208 18.9734 10.0419 18.3889 9.32776 18.3889C8.61362 18.3889 8.0347 18.9734 8.0347 19.6944C8.0347 20.4155 8.61362 21 9.32776 21Z" fill="black"/>
<path d="M17.7464 21C18.4606 21 19.0395 20.4155 19.0395 19.6944C19.0395 18.9734 18.4606 18.3889 17.7464 18.3889C17.0323 18.3889 16.4534 18.9734 16.4534 19.6944C16.4534 20.4155 17.0323 21 17.7464 21Z" fill="black"/>
<path d="M19 7.5C19 10.5376 16.5376 13 13.5 13C10.4624 13 8 10.5376 8 7.5C8 4.46243 10.4624 2 13.5 2C16.5376 2 19 4.46243 19 7.5Z" fill="black"/>
<path d="M13.4002 10.7436C12.8952 10.7415 12.4638 10.6083 12.1058 10.3441C11.7479 10.0799 11.4741 9.69531 11.2844 9.19034C11.0948 8.68537 11 8.07706 11 7.36541C11 6.6559 11.0948 6.04972 11.2844 5.54688C11.4762 5.04403 11.7511 4.66051 12.109 4.39631C12.4691 4.1321 12.8995 4 13.4002 4C13.9009 4 14.3303 4.13317 14.6882 4.3995C15.0462 4.66371 15.32 5.04723 15.5096 5.55007C15.7013 6.05078 15.7972 6.6559 15.7972 7.36541C15.7972 8.07919 15.7024 8.68857 15.5128 9.19354C15.3232 9.69638 15.0494 10.081 14.6914 10.3473C14.3335 10.6115 13.9031 10.7436 13.4002 10.7436ZM13.4002 9.89027C13.8434 9.89027 14.1896 9.67401 14.4389 9.24148C14.6903 8.80895 14.8161 8.18359 14.8161 7.36541C14.8161 6.82209 14.7585 6.36293 14.6435 5.98793C14.5305 5.6108 14.3675 5.32528 14.1545 5.13139C13.9435 4.93537 13.6921 4.83736 13.4002 4.83736C12.9592 4.83736 12.6129 5.05469 12.3615 5.48935C12.1101 5.92401 11.9833 6.54936 11.9812 7.36541C11.9812 7.91087 12.0376 8.37216 12.1506 8.74929C12.2656 9.12429 12.4286 9.40874 12.6396 9.60263C12.8505 9.79439 13.104 9.89027 13.4002 9.89027Z" fill="white"/>
</svg>
