<svg width="24" height="24" viewBox="0 0 24 24" fill="none" xmlns="http://www.w3.org/2000/svg">
<path d="M6 16V12C6.00001 11.4477 6.44772 11 7 11C7.55228 11 7.99999 11.4477 8 12V16C8 16.5523 7.55228 17 7 17C6.44772 17 6 16.5523 6 16ZM10 16V9.99998C10 9.4477 10.4477 8.99998 11 8.99998C11.5523 8.99998 12 9.4477 12 9.99998V16C12 16.5523 11.5523 17 11 17C10.4477 17 10 16.5523 10 16ZM13.5 16V11C13.5 10.4477 13.9477 9.99998 14.5 9.99998C15.0523 9.99998 15.5 10.4477 15.5 11V16C15.5 16.5523 15.0523 17 14.5 17C13.9477 17 13.5 16.5523 13.5 16ZM17 16V7.99998C17 7.4477 17.4477 6.99998 18 6.99998C18.5523 6.99998 19 7.4477 19 7.99998V16C19 16.5523 18.5523 17 18 17C17.4477 17 17 16.5523 17 16Z" fill="black"/>
</svg>
